<svg width="1800" height="1100" viewBox="0 0 1800 1100" fill="none" xmlns="http://www.w3.org/2000/svg">
<rect width="1800" height="1100" fill="#27272A"/>
<rect x="924.553" y="574.553" width="500" height="500" rx="15" fill="url(#paint0_linear_1_66)"/>
<rect x="375" y="575" width="500" height="500" rx="15" fill="url(#paint1_linear_1_66)"/>
<rect x="375" y="25" width="500" height="500" rx="15" fill="url(#paint2_linear_1_66)"/>
<rect x="925" y="25" width="500" height="500" rx="15" fill="url(#paint3_linear_1_66)"/>
<g filter="url(#filter0_d_1_66)">
<path d="M618.65 134.3C618.65 140.6 617.1 146.1 614 150.8C610.9 155.5 606.4 159.15 600.5 161.75C594.7 164.25 587.6 165.5 579.2 165.5C575.5 165.5 571.85 165.25 568.25 164.75C564.75 164.25 561.35 163.55 558.05 162.65C554.85 161.65 551.8 160.45 548.9 159.05V137.9C554 140.1 559.25 142.15 564.65 144.05C570.15 145.85 575.6 146.75 581 146.75C584.7 146.75 587.65 146.25 589.85 145.25C592.15 144.25 593.8 142.9 594.8 141.2C595.9 139.5 596.45 137.55 596.45 135.35C596.45 132.65 595.5 130.35 593.6 128.45C591.8 126.55 589.35 124.8 586.25 123.2C583.15 121.5 579.6 119.7 575.6 117.8C573.1 116.6 570.4 115.2 567.5 113.6C564.6 111.9 561.8 109.85 559.1 107.45C556.5 104.95 554.35 101.95 552.65 98.45C550.95 94.95 550.1 90.75 550.1 85.85C550.1 79.45 551.55 74 554.45 69.5C557.45 64.9 561.65 61.4 567.05 59C572.55 56.6 579 55.4 586.4 55.4C592 55.4 597.3 56.05 602.3 57.35C607.4 58.65 612.7 60.5 618.2 62.9L610.85 80.6C605.95 78.6 601.55 77.05 597.65 75.95C593.75 74.85 589.75 74.3 585.65 74.3C582.85 74.3 580.45 74.75 578.45 75.65C576.45 76.55 574.9 77.8 573.8 79.4C572.8 81 572.3 82.9 572.3 85.1C572.3 87.6 573.05 89.75 574.55 91.55C576.05 93.25 578.3 94.9 581.3 96.5C584.3 98.1 588.05 100 592.55 102.2C598.05 104.8 602.7 107.5 606.5 110.3C610.4 113.1 613.4 116.4 615.5 120.2C617.6 124 618.65 128.7 618.65 134.3ZM710.717 122.9C710.717 129.7 709.767 135.75 707.867 141.05C706.067 146.35 703.417 150.85 699.917 154.55C696.517 158.15 692.367 160.9 687.467 162.8C682.567 164.6 677.017 165.5 670.817 165.5C665.117 165.5 659.817 164.6 654.917 162.8C650.117 160.9 645.967 158.15 642.467 154.55C638.967 150.85 636.217 146.35 634.217 141.05C632.317 135.75 631.367 129.7 631.367 122.9C631.367 113.8 632.967 106.15 636.167 99.95C639.367 93.65 643.967 88.85 649.967 85.55C655.967 82.25 663.067 80.6 671.267 80.6C678.967 80.6 685.767 82.25 691.667 85.55C697.567 88.85 702.217 93.65 705.617 99.95C709.017 106.15 710.717 113.8 710.717 122.9ZM654.167 122.9C654.167 128.3 654.717 132.85 655.817 136.55C657.017 140.15 658.867 142.9 661.367 144.8C663.867 146.6 667.117 147.5 671.117 147.5C675.117 147.5 678.317 146.6 680.717 144.8C683.217 142.9 685.017 140.15 686.117 136.55C687.317 132.85 687.917 128.3 687.917 122.9C687.917 117.5 687.317 113 686.117 109.4C685.017 105.8 683.217 103.1 680.717 101.3C678.217 99.5 674.967 98.6 670.967 98.6C665.067 98.6 660.767 100.65 658.067 104.75C655.467 108.75 654.167 114.8 654.167 122.9ZM751.538 164H729.188V50H751.538V164ZM797.241 82.1V164H774.891V82.1H797.241ZM786.141 50C789.441 50 792.291 50.8 794.691 52.4C797.091 53.9 798.291 56.75 798.291 60.95C798.291 65.05 797.091 67.9 794.691 69.5C792.291 71.1 789.441 71.9 786.141 71.9C782.741 71.9 779.841 71.1 777.441 69.5C775.141 67.9 773.991 65.05 773.991 60.95C773.991 56.75 775.141 53.9 777.441 52.4C779.841 50.8 782.741 50 786.141 50ZM846.545 165.5C837.445 165.5 829.995 161.95 824.195 154.85C818.495 147.65 815.645 137.1 815.645 123.2C815.645 109.2 818.545 98.6 824.345 91.4C830.145 84.2 837.745 80.6 847.145 80.6C851.045 80.6 854.495 81.15 857.495 82.25C860.495 83.25 863.045 84.65 865.145 86.45C867.345 88.25 869.195 90.3 870.695 92.6H871.445C871.145 91 870.795 88.7 870.395 85.7C869.995 82.6 869.795 79.45 869.795 76.25V50H892.145V164H875.045L870.695 153.35H869.795C868.395 155.55 866.595 157.6 864.395 159.5C862.295 161.3 859.795 162.75 856.895 163.85C853.995 164.95 850.545 165.5 846.545 165.5ZM854.345 147.65C860.545 147.65 864.895 145.85 867.395 142.25C869.895 138.55 871.195 133.05 871.295 125.75V123.35C871.295 115.35 870.045 109.25 867.545 105.05C865.145 100.85 860.645 98.75 854.045 98.75C849.145 98.75 845.295 100.9 842.495 105.2C839.695 109.4 838.295 115.5 838.295 123.5C838.295 131.5 839.695 137.55 842.495 141.65C845.295 145.65 849.245 147.65 854.345 147.65ZM950.616 56.9C960.116 56.9 968.066 57.8 974.466 59.6C980.966 61.3 985.816 64.15 989.016 68.15C992.316 72.05 993.966 77.35 993.966 84.05C993.966 88.05 993.316 91.7 992.016 95C990.716 98.3 988.816 101 986.316 103.1C983.916 105.2 980.966 106.55 977.466 107.15V107.9C981.066 108.6 984.316 109.85 987.216 111.65C990.116 113.45 992.416 116.05 994.116 119.45C995.816 122.85 996.666 127.35 996.666 132.95C996.666 139.45 995.066 145.05 991.866 149.75C988.766 154.35 984.266 157.9 978.366 160.4C972.466 162.8 965.466 164 957.366 164H917.316V56.9H950.616ZM953.166 99.35C959.766 99.35 964.316 98.3 966.816 96.2C969.416 94.1 970.716 91.05 970.716 87.05C970.716 82.95 969.216 80 966.216 78.2C963.216 76.4 958.466 75.5 951.966 75.5H939.966V99.35H953.166ZM939.966 117.35V145.25H954.816C961.616 145.25 966.366 143.95 969.066 141.35C971.766 138.65 973.116 135.1 973.116 130.7C973.116 128 972.516 125.65 971.316 123.65C970.216 121.65 968.266 120.1 965.466 119C962.666 117.9 958.866 117.35 954.066 117.35H939.966ZM1049.9 80.45C1060.9 80.45 1069.3 82.85 1075.1 87.65C1081 92.35 1083.95 99.6 1083.95 109.4V164H1068.35L1064 152.9H1063.4C1061.1 155.8 1058.7 158.2 1056.2 160.1C1053.8 162 1051 163.35 1047.8 164.15C1044.7 165.05 1040.85 165.5 1036.25 165.5C1031.45 165.5 1027.1 164.6 1023.2 162.8C1019.4 160.9 1016.4 158.05 1014.2 154.25C1012 150.35 1010.9 145.45 1010.9 139.55C1010.9 130.85 1013.95 124.45 1020.05 120.35C1026.15 116.15 1035.3 113.85 1047.5 113.45L1061.75 113V109.4C1061.75 105.1 1060.6 101.95 1058.3 99.95C1056.1 97.95 1053 96.95 1049 96.95C1045 96.95 1041.1 97.55 1037.3 98.75C1033.5 99.85 1029.7 101.25 1025.9 102.95L1018.55 87.8C1022.95 85.5 1027.8 83.7 1033.1 82.4C1038.5 81.1 1044.1 80.45 1049.9 80.45ZM1053.05 126.35C1045.85 126.55 1040.85 127.85 1038.05 130.25C1035.25 132.65 1033.85 135.8 1033.85 139.7C1033.85 143.1 1034.85 145.55 1036.85 147.05C1038.85 148.45 1041.45 149.15 1044.65 149.15C1049.45 149.15 1053.5 147.75 1056.8 144.95C1060.1 142.05 1061.75 138 1061.75 132.8V126.05L1053.05 126.35ZM1163.98 139.7C1163.98 145.2 1162.68 149.9 1160.08 153.8C1157.48 157.6 1153.58 160.5 1148.38 162.5C1143.18 164.5 1136.73 165.5 1129.03 165.5C1123.33 165.5 1118.43 165.1 1114.33 164.3C1110.23 163.6 1106.13 162.4 1102.03 160.7V142.25C1106.43 144.25 1111.18 145.9 1116.28 147.2C1121.38 148.5 1125.88 149.15 1129.78 149.15C1134.18 149.15 1137.28 148.5 1139.08 147.2C1140.98 145.9 1141.93 144.2 1141.93 142.1C1141.93 140.7 1141.53 139.45 1140.73 138.35C1140.03 137.25 1138.43 136 1135.93 134.6C1133.43 133.2 1129.53 131.4 1124.23 129.2C1119.13 127 1114.93 124.85 1111.63 122.75C1108.33 120.55 1105.88 117.95 1104.28 114.95C1102.68 111.85 1101.88 108 1101.88 103.4C1101.88 95.8 1104.83 90.1 1110.73 86.3C1116.63 82.5 1124.48 80.6 1134.28 80.6C1139.38 80.6 1144.23 81.1 1148.83 82.1C1153.43 83.1 1158.18 84.75 1163.08 87.05L1156.33 103.1C1153.63 101.9 1151.03 100.85 1148.53 99.95C1146.03 99.05 1143.58 98.35 1141.18 97.85C1138.88 97.35 1136.48 97.1 1133.98 97.1C1130.68 97.1 1128.18 97.55 1126.48 98.45C1124.88 99.35 1124.08 100.7 1124.08 102.5C1124.08 103.8 1124.48 105 1125.28 106.1C1126.18 107.1 1127.83 108.2 1130.23 109.4C1132.73 110.6 1136.38 112.2 1141.18 114.2C1145.88 116.1 1149.93 118.1 1153.33 120.2C1156.73 122.2 1159.33 124.75 1161.13 127.85C1163.03 130.85 1163.98 134.8 1163.98 139.7ZM1215.14 80.6C1222.74 80.6 1229.24 82.05 1234.64 84.95C1240.14 87.85 1244.39 92.05 1247.39 97.55C1250.39 103.05 1251.89 109.8 1251.89 117.8V128.6H1199.09C1199.29 134.9 1201.14 139.85 1204.64 143.45C1208.24 147.05 1213.19 148.85 1219.49 148.85C1224.79 148.85 1229.59 148.35 1233.89 147.35C1238.19 146.25 1242.64 144.6 1247.24 142.4V159.65C1243.24 161.65 1238.99 163.1 1234.49 164C1230.09 165 1224.74 165.5 1218.44 165.5C1210.24 165.5 1202.99 164 1196.69 161C1190.39 157.9 1185.44 153.25 1181.84 147.05C1178.24 140.85 1176.44 133.05 1176.44 123.65C1176.44 114.05 1178.04 106.1 1181.24 99.8C1184.54 93.4 1189.09 88.6 1194.89 85.4C1200.69 82.2 1207.44 80.6 1215.14 80.6ZM1215.29 96.5C1210.99 96.5 1207.39 97.9 1204.49 100.7C1201.69 103.5 1200.04 107.85 1199.54 113.75H1230.89C1230.89 110.45 1230.29 107.5 1229.09 104.9C1227.99 102.3 1226.29 100.25 1223.99 98.75C1221.69 97.25 1218.79 96.5 1215.29 96.5Z" fill="#F8FAFC"/>
</g>
<path d="M621.85 742.95C573.4 744.49 559 779.1 555.7 797.85C560 790.9 573.55 775.65 593.5 775.65C616.75 775.65 634.45 801.6 645.25 809.7C658.371 819.541 684.737 832.534 719.35 822C746.95 813.6 759.75 784.3 762.55 770.4C749.2 788.55 728.95 799.451 703.9 786.6C686.65 777.75 673.75 741.3 621.85 742.95Z" fill="#07B6D5"/>
<path d="M553.3 825.3C504.85 826.84 490.45 861.45 487.15 880.2C491.45 873.25 505 858 524.95 858C548.2 858 565.9 883.95 576.7 892.05C589.821 901.891 616.187 914.885 650.8 904.35C678.4 895.95 691.2 866.65 694 852.75C680.65 870.9 660.4 881.801 635.35 868.95C618.1 860.1 605.2 823.65 553.3 825.3Z" fill="#07B6D5"/>
<path d="M779.875 192.611C779.875 192.611 677.492 117.273 598.29 134.659L592.495 136.59C580.905 140.454 571.246 146.249 565.451 153.976L561.587 159.771L532.611 209.997L582.836 219.655C604.086 233.178 631.13 238.973 656.243 233.178L745.103 250.563L779.875 192.611Z" fill="#76B3E1"/>
<path opacity="0.3" d="M779.875 192.611C779.875 192.611 677.492 117.273 598.29 134.659L592.495 136.59C580.905 140.454 571.246 146.249 565.451 153.976L561.587 159.771L532.611 209.997L582.836 219.655C604.086 233.178 631.13 238.973 656.243 233.178L745.103 250.563L779.875 192.611Z" fill="url(#paint4_linear_1_66)"/>
<path d="M565.451 192.611L557.724 194.543C524.884 204.202 515.225 235.11 532.611 262.154C551.929 287.267 592.495 300.789 625.335 291.13L745.103 250.563C745.103 250.563 642.721 175.225 565.451 192.611Z" fill="#518AC8"/>
<path opacity="0.3" d="M565.451 192.611L557.724 194.543C524.884 204.202 515.225 235.11 532.611 262.154C551.929 287.267 592.495 300.789 625.335 291.13L745.103 250.563C745.103 250.563 642.721 175.225 565.451 192.611Z" fill="url(#paint5_linear_1_66)"/>
<path d="M723.854 279.539C713.039 266.028 698.437 256.052 681.917 250.89C665.398 245.728 647.714 245.614 631.13 250.563L511.362 289.198L472.727 356.809L689.083 393.512L727.717 323.97C735.444 310.447 733.513 294.993 723.854 279.539Z" fill="url(#paint6_linear_1_66)"/>
<path d="M685.219 347.151C674.404 333.639 659.802 323.664 643.283 318.501C626.763 313.339 609.079 313.225 592.495 318.175L472.727 356.81C472.727 356.81 575.11 434.079 654.311 414.762L660.106 412.83C692.946 403.171 704.536 372.263 685.219 347.151Z" fill="url(#paint7_linear_1_66)"/>
<path d="M1065.6 366.878L1067.41 364.338L1153.23 201.506L1153.41 199.782L1115.58 128.725C1112.41 122.773 1103.49 124.278 1102.45 130.941L1065.6 366.878Z" fill="#FFC24A"/>
<path d="M1066.67 364.942L1068.04 362.266L1152.96 201.14L1115.22 129.793C1112.09 123.903 1104.12 125.405 1103.09 131.998L1066.67 364.942Z" fill="#FFA712"/>
<path d="M1180.99 253.531L1209.15 224.683L1180.98 170.897C1178.3 165.806 1170.84 165.791 1168.19 170.897L1153.14 199.605V202.05L1180.99 253.531Z" fill="#F4BD62"/>
<path d="M1180.48 252.328L1207.87 224.284L1180.48 172.141C1177.88 167.191 1171.57 166.673 1168.99 171.636L1153.86 200.79L1153.41 202.28L1180.48 252.328Z" fill="#FFA50E"/>
<path d="M1065.6 366.878L1066.42 366.051L1069.41 364.837L1179.22 255.435L1180.61 251.648L1153.22 199.448L1065.6 366.878Z" fill="#F6820C"/>
<path d="M1184.51 422.053L1283.89 366.627L1255.51 191.846C1254.62 186.377 1247.91 184.215 1244 188.136L1065.6 366.879L1164.41 422.048C1170.65 425.534 1178.26 425.536 1184.51 422.053Z" fill="#FDE068"/>
<path d="M1282.99 366.162L1254.83 192.708C1253.95 187.281 1248.37 185.035 1244.49 188.926L1066.7 366.539L1164.43 421.162C1170.62 424.622 1178.17 424.624 1184.37 421.167L1282.99 366.162Z" fill="#FCCA3F"/>
<path d="M1184.51 420.419C1178.26 423.903 1170.65 423.901 1164.41 420.415L1066.39 366.038L1065.6 366.878L1164.41 422.047C1170.65 425.534 1178.26 425.536 1184.51 422.052L1283.89 366.627L1283.64 365.13L1184.51 420.419Z" fill="#EEAB37"/>
<path d="M1309.98 726.255L1182.46 954.289C1179.82 958.997 1173.06 959.024 1170.39 954.339L1040.33 726.277C1037.42 721.171 1041.79 714.987 1047.57 716.021L1175.23 738.839C1176.05 738.985 1176.88 738.983 1177.7 738.835L1302.69 716.054C1308.45 715.003 1312.84 721.139 1309.98 726.255Z" fill="url(#paint8_linear_1_66)"/>
<path d="M1236.05 686.091L1141.67 704.583C1140.12 704.887 1138.97 706.201 1138.88 707.779L1133.08 805.823C1132.94 808.132 1135.06 809.924 1137.31 809.404L1163.59 803.341C1166.05 802.774 1168.27 804.939 1167.76 807.411L1159.96 845.636C1159.43 848.209 1161.85 850.409 1164.36 849.645L1180.59 844.715C1183.1 843.951 1185.52 846.157 1184.99 848.732L1172.58 908.775C1171.81 912.53 1176.8 914.578 1178.89 911.358L1180.28 909.208L1257.18 755.743C1258.46 753.173 1256.24 750.243 1253.42 750.788L1226.38 756.008C1223.83 756.498 1221.67 754.131 1222.39 751.644L1240.04 690.452C1240.76 687.962 1238.59 685.593 1236.05 686.091Z" fill="url(#paint9_linear_1_66)"/>
<defs>
<filter id="filter0_d_1_66" x="544.9" y="50" width="710.986" height="123.5" filterUnits="userSpaceOnUse" color-interpolation-filters="sRGB">
<feFlood flood-opacity="0" result="BackgroundImageFix"/>
<feColorMatrix in="SourceAlpha" type="matrix" values="0 0 0 0 0 0 0 0 0 0 0 0 0 0 0 0 0 0 127 0" result="hardAlpha"/>
<feOffset dy="4"/>
<feGaussianBlur stdDeviation="2"/>
<feComposite in2="hardAlpha" operator="out"/>
<feColorMatrix type="matrix" values="0 0 0 0 0 0 0 0 0 0 0 0 0 0 0 0 0 0 0.25 0"/>
<feBlend mode="normal" in2="BackgroundImageFix" result="effect1_dropShadow_1_66"/>
<feBlend mode="normal" in="SourceGraphic" in2="effect1_dropShadow_1_66" result="shape"/>
</filter>
<linearGradient id="paint0_linear_1_66" x1="1425" y1="825" x2="925" y2="825" gradientUnits="userSpaceOnUse">
<stop stop-color="#D946EF"/>
<stop offset="1" stop-color="#818CF8"/>
</linearGradient>
<linearGradient id="paint1_linear_1_66" x1="375" y1="825" x2="875" y2="825" gradientUnits="userSpaceOnUse">
<stop stop-color="#0369A1"/>
<stop offset="1" stop-color="#0891B2"/>
</linearGradient>
<linearGradient id="paint2_linear_1_66" x1="625" y1="25" x2="625" y2="525" gradientUnits="userSpaceOnUse">
<stop stop-color="#334155"/>
<stop offset="1" stop-color="#64748B"/>
</linearGradient>
<linearGradient id="paint3_linear_1_66" x1="1425" y1="275" x2="925" y2="275" gradientUnits="userSpaceOnUse">
<stop stop-color="#FB923C"/>
<stop offset="1" stop-color="#FCD34D"/>
</linearGradient>
<linearGradient id="paint4_linear_1_66" x1="518.123" y1="130.795" x2="758.625" y2="247.666" gradientUnits="userSpaceOnUse">
<stop offset="0.1" stop-color="#76B3E1"/>
<stop offset="0.3" stop-color="#DCF2FD"/>
<stop offset="1" stop-color="#76B3E1"/>
</linearGradient>
<linearGradient id="paint5_linear_1_66" x1="650.061" y1="187.975" x2="607.949" y2="328.22" gradientUnits="userSpaceOnUse">
<stop stop-color="#76B3E1"/>
<stop offset="0.5" stop-color="#4377BB"/>
<stop offset="1" stop-color="#1F3B77"/>
</linearGradient>
<linearGradient id="paint6_linear_1_66" x1="500.544" y1="249.018" x2="743.751" y2="414.375" gradientUnits="userSpaceOnUse">
<stop stop-color="#315AA9"/>
<stop offset="0.5" stop-color="#518AC8"/>
<stop offset="1" stop-color="#315AA9"/>
</linearGradient>
<linearGradient id="paint7_linear_1_66" x1="610.267" y1="268.915" x2="512.135" y2="628.799" gradientUnits="userSpaceOnUse">
<stop stop-color="#4377BB"/>
<stop offset="0.5" stop-color="#1A336B"/>
<stop offset="1" stop-color="#1A336B"/>
</linearGradient>
<linearGradient id="paint8_linear_1_66" x1="1037.16" y1="707.871" x2="1195.87" y2="923.416" gradientUnits="userSpaceOnUse">
<stop stop-color="#41D1FF"/>
<stop offset="1" stop-color="#BD34FE"/>
</linearGradient>
<linearGradient id="paint9_linear_1_66" x1="1167.91" y1="691.112" x2="1196.62" y2="888.062" gradientUnits="userSpaceOnUse">
<stop stop-color="#FFEA83"/>
<stop offset="0.0833333" stop-color="#FFDD35"/>
<stop offset="1" stop-color="#FFA800"/>
</linearGradient>
</defs>
</svg>
